<svg width="109" height="23" viewBox="0 0 109 23" fill="none" xmlns="http://www.w3.org/2000/svg">
<path d="M62.6309 0H46.3691C44.5116 0 43 1.51155 43 3.36914V19.6309C43 21.4884 44.5116 23 46.3691 23H53.1523V14.8691H50.457V10.8262H53.1523V8.08594C53.1523 5.85651 54.9659 4.04297 57.1953 4.04297H61.2832V8.08594H57.1953V10.8262H61.2832L60.6094 14.8691H57.1953V23H62.6309C64.4884 23 66 21.4884 66 19.6309V3.36914C66 1.51155 64.4884 0 62.6309 0Z" fill="white"/>
<g clip-path="url(#clip0_1_1808)">
<path d="M21.3412 0H1.65878C0.742615 0 0 0.742615 0 1.65878V21.3412C0 22.2574 0.742615 23 1.65878 23H21.3412C22.2574 23 23 22.2574 23 21.3412V1.65878C23 0.742615 22.2574 0 21.3412 0V0ZM16.7508 8.96648C16.7559 9.07966 16.7583 9.19337 16.7583 9.3076C16.7583 12.7955 14.1034 16.8176 9.24812 16.8178H9.24829H9.24812C7.75745 16.8178 6.37031 16.3809 5.20216 15.6321C5.4087 15.6565 5.61892 15.6686 5.83177 15.6686C7.06853 15.6686 8.20667 15.2468 9.11019 14.5387C7.95468 14.5173 6.98044 13.7542 6.64423 12.7053C6.80514 12.7362 6.97061 12.7531 7.1403 12.7531C7.38123 12.7531 7.61461 12.7206 7.83641 12.6601C6.62861 12.4183 5.71877 11.3508 5.71877 10.0727C5.71877 10.0607 5.71877 10.05 5.71912 10.039C6.07481 10.2367 6.48156 10.3557 6.91463 10.3691C6.20589 9.89615 5.74 9.08773 5.74 8.17192C5.74 7.68831 5.87073 7.23523 6.09744 6.84515C7.39912 8.44233 9.34445 9.49273 11.5383 9.6031C11.493 9.40973 11.4696 9.20828 11.4696 9.00122C11.4696 7.54407 12.6518 6.36189 14.1095 6.36189C14.8688 6.36189 15.5546 6.68283 16.0362 7.19592C16.6376 7.0773 17.2023 6.8576 17.7124 6.55526C17.515 7.17136 17.0966 7.68831 16.5516 8.01522C17.0856 7.95135 17.5945 7.80974 18.0674 7.59952C17.7141 8.12893 17.2661 8.59394 16.7508 8.96648Z" fill="white"/>
</g>
<g clip-path="url(#clip1_1_1808)">
<path d="M107.341 0H87.6588C86.7426 0 86 0.742615 86 1.65878V21.3412C86 22.2574 86.7426 23 87.6588 23H107.341C108.257 23 109 22.2574 109 21.3412V1.65878C109 0.742615 108.257 0 107.341 0V0ZM94.1582 17.3848H91.3575V8.95858H94.1582V17.3848ZM92.7579 7.80798H92.7397C91.7998 7.80798 91.192 7.161 91.192 6.35241C91.192 5.52557 91.8184 4.89648 92.7765 4.89648C93.7346 4.89648 94.3242 5.52557 94.3425 6.35241C94.3425 7.161 93.7346 7.80798 92.7579 7.80798ZM104.257 17.3848H101.457V12.877C101.457 11.7441 101.051 10.9715 100.038 10.9715C99.2642 10.9715 98.8034 11.4926 98.6009 11.9957C98.5269 12.1758 98.5088 12.4274 98.5088 12.6792V17.3848H95.7082C95.7082 17.3848 95.7449 9.7491 95.7082 8.95858H98.5088V10.1516C98.881 9.57748 99.5469 8.76082 101.033 8.76082C102.876 8.76082 104.257 9.96511 104.257 12.5532V17.3848Z" fill="white"/>
</g>
<defs>
<clipPath id="clip0_1_1808">
<rect width="23" height="23" fill="white"/>
</clipPath>
<clipPath id="clip1_1_1808">
<rect width="23" height="23" fill="white" transform="translate(86)"/>
</clipPath>
</defs>
</svg>
